<svg xmlns="http://www.w3.org/2000/svg" viewBox="0 0 500 500"><g id="freepik--background-simple--inject-146"><path d="M460.49,291.51c-13.05,42.1-41.25,88.21-82.86,103.15-62.87,22.57-68.37,77.17-182.57,76.54a218.62,218.62,0,0,1-49.6-5.75A183.77,183.77,0,0,1,122,458.19c-67.7-26-104.87-87.47-110.3-153.11C4.52,218.75,59.94,175.33,96.05,149.76S173.21,29,285.47,28.64a211.31,211.31,0,0,1,51,5.88c38.14,9.34,77.41,31.76,101,65.84,1.78,2.56,3.48,5.19,5.11,7.86C474.49,160.62,478.28,234.12,460.49,291.51Z" style="fill:#92E3A9"></path><path d="M460.49,291.51c-13.05,42.1-41.25,88.21-82.86,103.15-62.87,22.57-68.37,77.17-182.57,76.54a218.62,218.62,0,0,1-49.6-5.75A183.77,183.77,0,0,1,122,458.19c-67.7-26-104.87-87.47-110.3-153.11C4.52,218.75,59.94,175.33,96.05,149.76S173.21,29,285.47,28.64a211.31,211.31,0,0,1,51,5.88c38.14,9.34,77.41,31.76,101,65.84,1.78,2.56,3.48,5.19,5.11,7.86C474.49,160.62,478.28,234.12,460.49,291.51Z" style="fill:#fff;opacity:0.7000000000000001"></path></g><g id="freepik--leaves-2--inject-146"><path d="M278.75,176.34s16.14-1.73,22.26-.37,24.37,10,41.41,9.53,44.71-10.55,52.4-16.6,12.59-10.65,12.59-10.65,29-18.78,40.16-33.54,22.56-35.92,23.95-42.19,3.56-20.23,6-24.94,7.09-10.6,4.66-11.43-13.3-.43-13.3-.43-20.17-5.91-35-6.61-36.32,4.49-61.29,24.66-47.88,45.84-51.34,52.13-13.67,27.87-15.34,34.28-2.25,13.85-8.11,17.72c-2.41,1.58-12.07-3.15-18.45,1.18S276.57,176.07,278.75,176.34Z" style="fill:#92E3A9;stroke:#263238;stroke-miterlimit:10"></path><path d="M476.45,53.61s-37,21.13-64.13,44.16a881.58,881.58,0,0,1-70.94,54.61c-18.86,12.85-37.62,20.43-41.77,21.18" style="fill:none;stroke:#263238;stroke-miterlimit:10"></path><path d="M301.06,169a166.8,166.8,0,0,0,34.67-16.14c18.51-11.28,49.93-34.06,60.38-43.27" style="fill:none;stroke:#263238;stroke-miterlimit:10"></path><path d="M371.9,160.59c-13-2.61-30.52-8.21-30.52-8.21" style="fill:none;stroke:#263238;stroke-miterlimit:10"></path><path d="M398.35,161.18s-8.06,2.08-20.89.36c-.89-.12-1.84-.27-2.83-.44" style="fill:none;stroke:#263238;stroke-miterlimit:10"></path><path d="M338.48,171.83c-8.83-3.14-17.79-5.71-19.59-5.43" style="fill:none;stroke:#263238;stroke-miterlimit:10"></path><path d="M368.33,177.7S350,176,340.56,172.58" style="fill:none;stroke:#263238;stroke-miterlimit:10"></path><path d="M415.44,145.08a61.82,61.82,0,0,1-26.68-1.86c-13.94-4.26-22.08-6.31-22.08-6.31" style="fill:none;stroke:#263238;stroke-miterlimit:10"></path><path d="M393.06,121.48a18.66,18.66,0,0,0-4.44-1.43" style="fill:none;stroke:#263238;stroke-miterlimit:10"></path><path d="M436.33,132.93s-8.86-1.33-21.08-4.05a137.55,137.55,0,0,1-19.34-6.29" style="fill:none;stroke:#263238;stroke-miterlimit:10"></path><path d="M428.7,96.67c-5.13-.32-9.16-.54-9.16-.54" style="fill:none;stroke:#263238;stroke-miterlimit:10"></path><path d="M455.46,105.72s-15-8.24-22.1-8.73l-1.42-.1" style="fill:none;stroke:#263238;stroke-miterlimit:10"></path><path d="M446.27,120.17s-21-6.18-29.37-8.8-11.7-2.3-11.7-2.3" style="fill:none;stroke:#263238;stroke-miterlimit:10"></path><path d="M460.73,90.17s-16.93-7.94-24.2-8" style="fill:none;stroke:#263238;stroke-miterlimit:10"></path><path d="M470.36,75.14s-13.06-5.41-17.78-4.37" style="fill:none;stroke:#263238;stroke-miterlimit:10"></path><path d="M333.39,153a141.29,141.29,0,0,0,2.12-27.46c-.42-14.36,3.1-22.07,4.92-25.79" style="fill:none;stroke:#263238;stroke-miterlimit:10"></path><path d="M358.91,100.89c.28-2.14.56-4.12.83-5.86,2.16-14,8.71-21.84,8.71-21.84" style="fill:none;stroke:#263238;stroke-miterlimit:10"></path><path d="M354.91,139.16s1.69-19.22,3.48-34.08" style="fill:none;stroke:#263238;stroke-miterlimit:10"></path><path d="M393,60.2a30.1,30.1,0,0,1,3.75-6.78" style="fill:none;stroke:#263238;stroke-miterlimit:10"></path><path d="M379.62,121.56s1.41-9.4,5.16-30.76a174.7,174.7,0,0,1,6-24.9" style="fill:none;stroke:#263238;stroke-miterlimit:10"></path><path d="M407,91c.62-3.89,1.48-8.75,2.61-14.39a89.32,89.32,0,0,1,12.28-30.27" style="fill:none;stroke:#263238;stroke-miterlimit:10"></path><path d="M405.57,101.25s.25-2.44.9-6.81" style="fill:none;stroke:#263238;stroke-miterlimit:10"></path><path d="M428.58,77.83c1-4.9,2.64-12.4,4.29-19.8,2.78-12.54,5.38-15.27,5.38-15.27" style="fill:none;stroke:#263238;stroke-miterlimit:10"></path><path d="M427.41,83.4s.23-1.07.61-2.89" style="fill:none;stroke:#263238;stroke-miterlimit:10"></path><path d="M451.1,67.37s.92-5,2.87-11.54,3.59-9.14,3.59-9.14" style="fill:none;stroke:#263238;stroke-miterlimit:10"></path><path d="M436.77,77.19s3.65-10.56,6.75-20.83,5.25-12.42,5.25-12.42" style="fill:none;stroke:#263238;stroke-miterlimit:10"></path><path d="M320.81,143.21c-.53-17.77,2.39-24.48,2.39-24.48" style="fill:none;stroke:#263238;stroke-miterlimit:10"></path><path d="M317.28,162.72s3.4-1.46,3.57-15.32" style="fill:none;stroke:#263238;stroke-miterlimit:10"></path><path d="M258.83,254.32s1.37-16.18,3.87-21.92,14.44-22,17.23-38.85-1.87-45.89-6.34-54.6-8.07-14.38-8.07-14.38S252.6,92.5,240.23,78.77s-31-29-36.87-31.54S184.18,39.89,180,36.62s-9-9-10.33-6.74-3,13-3,13-9.64,18.68-13.14,33.07-2.49,36.51,12.56,64.86,35.91,55.72,41.43,60.31,24.76,18.71,30.74,21.58,13.17,4.84,15.85,11.33c1.1,2.66-5.38,11.25-2.35,18.34S258.16,256.42,258.83,254.32Z" style="fill:#92E3A9;stroke:#263238;stroke-miterlimit:10"></path><path d="M175.91,36.9s13.73,40.3,31.17,71.35a882.85,882.85,0,0,1,40.14,80c9,21,12.91,40.81,12.86,45" style="fill:none;stroke:#263238;stroke-miterlimit:10"></path><path d="M255.87,231a166.76,166.76,0,0,0-9.25-37.1c-7.56-20.32-24-55.49-31-67.51" style="fill:none;stroke:#263238;stroke-miterlimit:10"></path><path d="M261.07,159.87c-5,12.28-13.85,28.41-13.85,28.41" style="fill:none;stroke:#263238;stroke-miterlimit:10"></path><path d="M266.68,134s.51,8.31-3.62,20.57c-.28.86-.61,1.76-1,2.7" style="fill:none;stroke:#263238;stroke-miterlimit:10"></path><path d="M265.75,194.83c-4.75,8.06-9,16.38-9,18.19" style="fill:none;stroke:#263238;stroke-miterlimit:10"></path><path d="M277.19,166.64s-5.11,17.66-10.3,26.28" style="fill:none;stroke:#263238;stroke-miterlimit:10"></path><path d="M254.13,114.18a61.86,61.86,0,0,1-6.9,25.84c-6.84,12.88-10.4,20.48-10.4,20.48" style="fill:none;stroke:#263238;stroke-miterlimit:10"></path><path d="M226.7,131.67a18.4,18.4,0,0,0-2.25,4.09" style="fill:none;stroke:#263238;stroke-miterlimit:10"></path><path d="M246.16,91.36s-3,8.45-8,19.93a137.66,137.66,0,0,1-9.85,17.79" style="fill:none;stroke:#263238;stroke-miterlimit:10"></path><path d="M209.12,92c-1.3,5-2.28,8.9-2.28,8.9" style="fill:none;stroke:#263238;stroke-miterlimit:10"></path><path d="M223.08,67.41s-10.93,13.15-12.77,20c-.12.46-.24.92-.37,1.38" style="fill:none;stroke:#263238;stroke-miterlimit:10"></path><path d="M235.53,79.18s-10.06,19.43-14.22,27.17-4.48,11-4.48,11" style="fill:none;stroke:#263238;stroke-miterlimit:10"></path><path d="M208.82,59.28s-11,15.11-12.46,22.24" style="fill:none;stroke:#263238;stroke-miterlimit:10"></path><path d="M195.89,47s-7.79,11.8-7.66,16.62" style="fill:none;stroke:#263238;stroke-miterlimit:10"></path><path d="M246.33,196.25a140.62,140.62,0,0,0-26.56-7.3c-14.17-2.32-21.07-7.24-24.37-9.73" style="fill:none;stroke:#263238;stroke-miterlimit:10"></path><path d="M200,161.28c-2.05-.68-3.95-1.33-5.6-1.92-13.29-4.78-19.78-12.71-19.78-12.71" style="fill:none;stroke:#263238;stroke-miterlimit:10"></path><path d="M236.81,172.49s-18.55-5.32-32.8-9.9" style="fill:none;stroke:#263238;stroke-miterlimit:10"></path><path d="M166.52,120.12a29.6,29.6,0,0,1-5.94-5" style="fill:none;stroke:#263238;stroke-miterlimit:10"></path><path d="M224.23,144.88s-9-3.17-29.23-10.92a172.19,172.19,0,0,1-23.3-10.65" style="fill:none;stroke:#263238;stroke-miterlimit:10"></path><path d="M199.42,112.19c-3.69-1.35-8.3-3.11-13.63-5.3a89.29,89.29,0,0,1-27.38-17.8" style="fill:none;stroke:#263238;stroke-miterlimit:10"></path><path d="M209.22,115.54s-2.35-.71-6.52-2.18" style="fill:none;stroke:#263238;stroke-miterlimit:10"></path><path d="M190.6,88.5c-4.62-2-11.68-5-18.63-8-11.78-5.12-14-8.19-14-8.19" style="fill:none;stroke:#263238;stroke-miterlimit:10"></path><path d="M195.84,90.7l-2.72-1.14" style="fill:none;stroke:#263238;stroke-miterlimit:10"></path><path d="M184.61,64.41s-4.72-1.85-10.79-5-8.29-5.26-8.29-5.26" style="fill:none;stroke:#263238;stroke-miterlimit:10"></path><path d="M191.52,80.34s-9.67-5.59-19.17-10.58-11.19-7.52-11.19-7.52" style="fill:none;stroke:#263238;stroke-miterlimit:10"></path><path d="M234.3,206.73c-17.55-2.85-23.58-7-23.58-7" style="fill:none;stroke:#263238;stroke-miterlimit:10"></path><path d="M252.79,213.9s-.79-3.61-14.37-6.41" style="fill:none;stroke:#263238;stroke-miterlimit:10"></path></g><g id="freepik--Mug--inject-146"><path d="M354.07,123s81.87-39.49,99.33,12.38-17.84,111.75-45.8,123.4S342.52,244,342.52,244l8.2-23.85s35.62,13.12,56.78,1.08,33.93-75.43,4.73-81.55S347.5,158,347.5,158Z" style="fill:#fff;stroke:#263238;stroke-linecap:round;stroke-linejoin:round"></path><path d="M409.86,137.2c6,.92,13.68,5.83,16.43,10.88-2.5-7.49-6.49-16.09-16-17.59-23.37-3.7-54.1,9.5-63.56,15.3l-1.28,6.83C346.6,153.86,382.4,133,409.86,137.2Z" style="opacity:0.24"></path><path d="M451.69,135.21a44.78,44.78,0,0,0-2.43-5.82c.14.37.28.73.41,1.1,17.45,51.88-18.15,106.55-46.11,118.2-23.23,9.67-52.78-7-62.11-12.87l-.95,2.75s37.24,29.46,65.2,17.82S469.14,187.08,451.69,135.21Z" style="opacity:0.24"></path><g style="opacity:0.24"><path d="M347.5,158a136.77,136.77,0,0,1,23.23-12.23c.19-11.91,0-22.07-.3-29.3A164.1,164.1,0,0,0,354.07,123Z"></path><path d="M362.94,223.59a109.29,109.29,0,0,1-12.22-3.48L342.52,244a111.2,111.2,0,0,0,12.76,7.53A218.56,218.56,0,0,0,362.94,223.59Z"></path></g><path d="M64.78,110c.92,85-3.66,198.31,146.41,198.31C368.41,308.26,356.69,195,357.6,110Z" style="fill:#fff;stroke:#263238;stroke-linecap:round;stroke-linejoin:round"></path><g style="opacity:0.24"><path d="M341.92,110c-.54,68.75,5.57,155.12-68,185.34,85-28.19,77.22-116.28,78-185.34Z"></path></g><path d="M64.94,127.66l0,2H357.53v-2Z" style="fill:#263238;stroke:#263238;stroke-miterlimit:10"></path><path d="M357.46,147.19c.05-4.29.06-8.56.07-12.79H65q.09,6.34.26,12.79Z" style="fill:#263238;stroke:#263238;stroke-miterlimit:10"></path></g><g id="freepik--leaves-1--inject-146"><path d="M318.08,308.52s-19.78-7.16-26.24-12.07-23.4-24.51-43.58-33.56-57.72-13.58-69.83-11.32-20.18,4.53-20.18,4.53-43.59,4.15-64.17,13.95-44.8,26.4-49.65,32.44-14.53,20-19.77,23.76-13.73,7.54-11.3,9.8S28.69,344,28.69,344s20.59,17.73,37.54,26.78,44.8,15.46,84.35,7.54,79.51-23,86.78-27.91,30.27-22.62,35.52-28.66,9.73-13.79,18.56-14.71c3.63-.37,12.51,10.19,22.2,9.05S320.5,310,318.08,308.52Z" style="fill:#92E3A9;stroke:#263238;stroke-miterlimit:10"></path><path d="M304.12,308.33a57.22,57.22,0,0,1-.9-5.8c-4.51-2-8.91-4.21-11.38-6.08-6.45-4.9-23.4-24.51-43.58-33.56s-57.72-13.58-69.83-11.32-20.18,4.53-20.18,4.53-34.51,3.29-56.62,10.92c9.39,8.23,21.61,16.33,37.37,23.59,36.28,16.72,77.63,28.05,86.58,28.42s38.77-.2,46.89-1.89c1.7-.35,3.43-.78,5.16-1.2,3.65-4.36,7.68-8.29,13.81-8.93,2.74-.28,8.48,5.66,15.29,8.11A38.62,38.62,0,0,1,304.12,308.33Z" style="fill:#263238;stroke:#263238;stroke-miterlimit:10"></path><path d="M23.85,331.15s54.08-2.26,97.67-12.07,82.34-16.22,111-19.61,54.49-1.13,59.74.38" style="fill:none;stroke:#263238;stroke-miterlimit:10"></path><path d="M288.21,304a223.09,223.09,0,0,0-48.83-1.89c-27.45,1.89-75.88,9.05-92.83,13.2" style="fill:none;stroke:#263238;stroke-miterlimit:10"></path><path d="M201,273.45c13.89,10.12,31.51,26,31.51,26" style="fill:none;stroke:#263238;stroke-miterlimit:10"></path><path d="M170.36,258s10.49,2.26,24.62,11.31c1,.63,2,1.33,3.09,2.07" style="fill:none;stroke:#263238;stroke-miterlimit:10"></path><path d="M245.87,280c8.72,8.35,17.9,16.17,20.14,16.87" style="fill:none;stroke:#263238;stroke-miterlimit:10"></path><path d="M214,256.85s20.58,12.07,29.87,21.12" style="fill:none;stroke:#263238;stroke-miterlimit:10"></path><path d="M142.11,265.91a86.55,86.55,0,0,1,30.27,17c14.12,12.44,22.6,19.23,22.6,19.23" style="fill:none;stroke:#263238;stroke-miterlimit:10"></path><path d="M156.21,304.1c2.26,2.29,3.83,3.81,4.46,4" style="fill:none;stroke:#263238;stroke-miterlimit:10"></path><path d="M111.43,267.41s9.69,6.42,22.6,16.22a189.39,189.39,0,0,1,19.41,17.67" style="fill:none;stroke:#263238;stroke-miterlimit:10"></path><path d="M101.79,311.09c5.84,3.23,10.45,5.73,10.45,5.73" style="fill:none;stroke:#263238;stroke-miterlimit:10"></path><path d="M75.11,286.27s13.32,17.35,21.39,21.87l1.61.91" style="fill:none;stroke:#263238;stroke-miterlimit:10"></path><path d="M93.27,275.71s21.39,18.48,29.87,26,12.51,9,12.51,9" style="fill:none;stroke:#263238;stroke-miterlimit:10"></path><path d="M61,300.22s15.74,18.11,24.22,22.26" style="fill:none;stroke:#263238;stroke-miterlimit:10"></path><path d="M42,311.16s12.51,13.2,18.57,14.71" style="fill:none;stroke:#263238;stroke-miterlimit:10"></path><path d="M242.2,303.24a157,157,0,0,0-16.55,28.66c-6.86,15.84-14.93,22.25-19,25.27" style="fill:none;stroke:#263238;stroke-miterlimit:10"></path><path d="M185.63,345.61c-1.43,2.17-2.77,4.17-4,5.9-9.69,14-21.39,18.86-21.39,18.86" style="fill:none;stroke:#263238;stroke-miterlimit:10"></path><path d="M209.91,306.26s-11.83,19.94-21.53,35.09" style="fill:none;stroke:#263238;stroke-miterlimit:10"></path><path d="M124.94,370.76a35.26,35.26,0,0,1-7.86,5.27" style="fill:none;stroke:#263238;stroke-miterlimit:10"></path><path d="M172,311.54s-6.45,9.43-21.79,30.55a194,194,0,0,1-19.81,23.68" style="fill:none;stroke:#263238;stroke-miterlimit:10"></path><path d="M124.28,329.42c-2.72,3.87-6.21,8.68-10.43,14.17a102.46,102.46,0,0,1-29.86,26" style="fill:none;stroke:#263238;stroke-miterlimit:10"></path><path d="M131.21,319.08s-1.55,2.51-4.55,6.9" style="fill:none;stroke:#263238;stroke-miterlimit:10"></path><path d="M92.28,331.64c-3.72,4.75-9.44,12-15.15,19.12C67.44,362.83,63,364.34,63,364.34" style="fill:none;stroke:#263238;stroke-miterlimit:10"></path><path d="M96.5,326.25,94.32,329" style="fill:none;stroke:#263238;stroke-miterlimit:10"></path><path d="M60.58,330.4a139.7,139.7,0,0,1-9.29,10.93c-5.65,6-8.88,7.92-8.88,7.92" style="fill:none;stroke:#263238;stroke-miterlimit:10"></path><path d="M82.37,327.76s-9.68,9.42-18.56,18.85-12.52,10.56-12.52,10.56" style="fill:none;stroke:#263238;stroke-miterlimit:10"></path><path d="M251.89,321c-8.48,19.61-15.34,25.26-15.34,25.26" style="fill:none;stroke:#263238;stroke-miterlimit:10"></path><path d="M266,301.73s-4.73-.31-12,14.66" style="fill:none;stroke:#263238;stroke-miterlimit:10"></path><path d="M322.16,320.29s-11.93-16.38-14.28-23.84-4.39-32.6-15.51-50.75-39.28-41.78-50.63-46.34-19.36-7-19.36-7S184,172.7,161.06,169.86s-52.92-2-60.58.39-24.1,8.76-30.71,9.08-15.88-1.06-15.26,2.09,7.82,14.65,7.82,14.65S68.52,221.58,77,238,104.49,274.5,141.87,289s79.44,23.21,88.4,23,38.67-2.59,46.65-4.77,16.39-6.2,24.22-2.27c3.22,1.61,4.12,15,12.78,19.22S323.24,322.82,322.16,320.29Z" style="fill:#92E3A9;stroke:#263238;stroke-miterlimit:10"></path><path d="M66.13,182.94s45.91,26.81,87.76,41.84,77.65,30.3,103.31,42.7,45.55,27.95,49,32" style="fill:none;stroke:#263238;stroke-miterlimit:10"></path><path d="M300.31,300.73a208,208,0,0,0-39.07-27.44c-23.74-13-68-32.77-84.45-38.34" style="fill:none;stroke:#263238;stroke-miterlimit:10"></path><path d="M247,229.35c5.3,15.69,10.16,38.13,10.16,38.13" style="fill:none;stroke:#263238;stroke-miterlimit:10"></path><path d="M231.2,200.36s7.27,7.43,13.41,22.37c.43,1.05.86,2.17,1.29,3.34" style="fill:none;stroke:#263238;stroke-miterlimit:10"></path><path d="M280,258.5c2.12,11.49,4.92,22.8,6.35,24.56" style="fill:none;stroke:#263238;stroke-miterlimit:10"></path><path d="M267.78,222.54s9.63,20.85,11.77,33.23" style="fill:none;stroke:#263238;stroke-miterlimit:10"></path><path d="M203.13,191.91a77.33,77.33,0,0,1,14.62,30c4.08,17.74,6.93,27.82,6.93,27.82" style="fill:none;stroke:#263238;stroke-miterlimit:10"></path><path d="M191.54,230.84c.48,3.08.85,5.17,1.23,5.69" style="fill:none;stroke:#263238;stroke-miterlimit:10"></path><path d="M177,176.89s4.09,10.41,8.77,25.34c2.68,8.54,4.21,18,5.25,24.84" style="fill:none;stroke:#263238;stroke-miterlimit:10"></path><path d="M142.49,207.74c2.85,5.76,5.13,10.26,5.13,10.26" style="fill:none;stroke:#263238;stroke-miterlimit:10"></path><path d="M135.59,173.16s.44,21.35,4.33,29.35l.79,1.6" style="fill:none;stroke:#263238;stroke-miterlimit:10"></path><path d="M157,174.09s6.39,26.56,8.79,37.26,4.81,14.09,4.81,14.09" style="fill:none;stroke:#263238;stroke-miterlimit:10"></path><path d="M115.49,177.16s2,23.25,6.43,31.16" style="fill:none;stroke:#263238;stroke-miterlimit:10"></path><path d="M93.22,176.11s2.29,17.5,6.36,22" style="fill:none;stroke:#263238;stroke-miterlimit:10"></path><path d="M262.88,275.72a176.08,176.08,0,0,0-31,14.83c-15.26,9.4-25.8,10.4-31,10.75" style="fill:none;stroke:#263238;stroke-miterlimit:10"></path><path d="M190.57,280.61c-2.49,1-4.81,2-6.85,2.76-16.45,6.36-29.07,4.19-29.07,4.19" style="fill:none;stroke:#263238;stroke-miterlimit:10"></path><path d="M234.46,261.08s-21.85,10.16-39,17.49" style="fill:none;stroke:#263238;stroke-miterlimit:10"></path><path d="M125.32,269.15a37,37,0,0,1-9.66.17" style="fill:none;stroke:#263238;stroke-miterlimit:10"></path><path d="M200,245.32s-11,4.34-36.49,13.6a215.09,215.09,0,0,1-30.7,9" style="fill:none;stroke:#263238;stroke-miterlimit:10"></path><path d="M149.88,234.76c-4.59,1.75-10.38,3.86-17.19,6.15A111.39,111.39,0,0,1,92.3,246.5" style="fill:none;stroke:#263238;stroke-miterlimit:10"></path><path d="M161.87,229.92s-2.8,1.25-7.93,3.27" style="fill:none;stroke:#263238;stroke-miterlimit:10"></path><path d="M122.19,219.62c-6,1.94-15.07,4.88-24.09,7.71-15.31,4.81-19.88,3.7-19.88,3.7" style="fill:none;stroke:#263238;stroke-miterlimit:10"></path><path d="M128.93,217.42l-3.49,1.14" style="fill:none;stroke:#263238;stroke-miterlimit:10"></path><path d="M96.83,201.79s-6,2.11-14.28,4.09-12.12,1.81-12.12,1.81" style="fill:none;stroke:#263238;stroke-miterlimit:10"></path><path d="M116.38,211.17s-13.7,2.63-26.73,5.69-16.72,2.06-16.72,2.06" style="fill:none;stroke:#263238;stroke-miterlimit:10"></path><path d="M260.1,295.45c-18.89,11.65-28,12.68-28,12.68" style="fill:none;stroke:#263238;stroke-miterlimit:10"></path><path d="M283.41,287.1s-3.71-2.77-18.8,5.69" style="fill:none;stroke:#263238;stroke-miterlimit:10"></path></g><g id="freepik--coffee-beans--inject-146"><path d="M213.54,327.49s-12.23,5.7-17.08,15.39-3.86,27.05,7.27,36.42,31.81,18.88,59.4,18,45.54-19.9,48.38-32.35-3.18-26.4-19.42-36.18-27.93-8.79-44.45-8.76S213.54,327.49,213.54,327.49Z" style="fill:#737373;stroke:#263238;stroke-miterlimit:10"></path><path d="M71.21,341.33S59.9,348.7,56.47,359s0,27.32,12.34,35,34.16,14.2,61.36,9.47,42.27-26.13,43.32-38.86-6.87-25.68-24.33-33.07-28.89-4.76-45.24-2.39S71.21,341.33,71.21,341.33Z" style="fill:#737373;stroke:#263238;stroke-miterlimit:10"></path><path d="M422.63,338.81s7.24,2.12,12.84,10.19a30.55,30.55,0,0,1,3.6,27c-3,8.45-17.79,23.67-31.48,30.65s-30.43,7.81-43.91.64-17.11-23.71-18.18-26.11-4.44-18.28,4-32.28,16.76-22.51,30.23-26.58,26.21-1.79,32.62,4.29,7.42,11.62,7.42,11.62Z" style="fill:#8c8c8c"></path><path d="M345.15,359.59l2.48-7.13c.35-.77.74-1.54,1.16-2.3-.87,4-2.09,10.89-1.72,16.95.57,9.2,2.54,12.13,13.46,23.34s14.48,10.73,19.76,12.49,18.37,1,31.86-4.49a48.37,48.37,0,0,0,20.39-15.82l7.74-11.39a29,29,0,0,1-1.21,4.75c-3,8.45-17.79,23.67-31.48,30.65s-30.43,7.81-43.91.64-17.11-23.71-18.18-26.11C344.69,379.38,342.61,370,345.15,359.59Z" style="fill:#616161"></path><path d="M415.5,339.88s-2.19-.85-8.7,7.64-17.28,13.72-22.69,20.67-10.2,13.83-12,16.61-4.92,4.68-6.42,7.13-2.49,6.18-3.39,5.79,3.59-7.72,3.46-9.92-2.27-7-1.27-8.94,5.3-4.6,4.71-5.52-10.25-4.72-5.91-3.8,8.79,3.22,9.94,1.49,2-5.69,2-5.69-1.43-.7.77-1.81,5.09-5.44,5.09-5.44,7.3-7.54,12.18-11,7.16-5,9.67-5.66,2.19-.13,4.52-1.81,1.47-3.24,3.43-2.23S418.75,336.62,415.5,339.88Z" style="fill:#263238;stroke:#263238;stroke-miterlimit:10"></path><path d="M418.59,395.55s-9.31,3.95-16.79,6.72-21.62.59-26.79-1.09" style="fill:none;stroke:#263238;stroke-miterlimit:10"></path><path d="M370.45,399.43s-4.25-2.27-5.34-3.68" style="fill:none;stroke:#263238;stroke-miterlimit:10"></path><path d="M361.74,392.08s-5.92-5.58-8.61-9.7S348,377,347.07,367.11s1.84-14.4,1.84-14.4" style="fill:none;stroke:#263238;stroke-miterlimit:10"></path><path d="M422.63,338.81s7.24,2.12,12.84,10.19a30.55,30.55,0,0,1,3.6,27c-3,8.45-17.79,23.67-31.48,30.65s-30.43,7.81-43.91.64-17.11-23.71-18.18-26.11-4.44-18.28,4-32.28,16.76-22.51,30.23-26.58,26.21-1.79,32.62,4.29,7.42,11.62,7.42,11.62Z" style="fill:none;stroke:#263238;stroke-miterlimit:10"></path><path d="M391.83,396.88c-.11.48.66,1.06,1.71,1.28s2,0,2.09-.48-.66-1.06-1.72-1.28S391.93,396.39,391.83,396.88Z" style="fill:none;stroke:#263238;stroke-miterlimit:10"></path><ellipse cx="404.15" cy="327.29" rx="0.9" ry="1.95" transform="translate(0.76 655.51) rotate(-78.13)" style="fill:none;stroke:#263238;stroke-miterlimit:10"></ellipse><path d="M391.8,324.19c-.22,1,.92,2.14,2.54,2.48s3.11-.22,3.32-1.25-.92-2.14-2.54-2.48S392,323.16,391.8,324.19Z" style="fill:none;stroke:#263238;stroke-miterlimit:10"></path><path d="M271.44,298.91s-13.39,1.73-20.94,9.5-11.87,24.61-4.1,36.91S271,373,297.55,380.5s49.43-5.18,55.9-16.19,5-26.11-7.55-40.36-24-16.84-39.71-21.8S271.44,298.91,271.44,298.91Z" style="fill:#8c8c8c"></path><path d="M353.45,364.31a28,28,0,0,0,3.31-19.21c-4.84,4.57-18.74,13.53-53.13,13.15-26.28-.3-47.92-17.79-61.1-31.84a28.82,28.82,0,0,0,3.87,18.91c7.77,12.3,24.6,27.63,51.15,35.18S347,375.32,353.45,364.31Z" style="fill:#616161"></path><path d="M271.44,298.91s-13.39,1.73-20.94,9.5-11.87,24.61-4.1,36.91S271,373,297.55,380.5s49.43-5.18,55.9-16.19,5-26.11-7.55-40.36-24-16.84-39.71-21.8S271.44,298.91,271.44,298.91Z" style="fill:none;stroke:#263238;stroke-miterlimit:10"></path><path d="M272.88,305.12c0,.66-.8,1.2-1.79,1.2s-1.8-.54-1.8-1.2.81-1.2,1.8-1.2S272.88,304.46,272.88,305.12Z" style="fill:none;stroke:#263238;stroke-miterlimit:10"></path><path d="M287.25,309.25c0,.86-1.16,1.56-2.59,1.56s-2.6-.7-2.6-1.56,1.16-1.56,2.6-1.56S287.25,308.38,287.25,309.25Z" style="fill:none;stroke:#263238;stroke-miterlimit:10"></path><path d="M276.78,312.3c0,.66-.81,1.2-1.8,1.2s-1.8-.54-1.8-1.2.81-1.19,1.8-1.19S276.78,311.64,276.78,312.3Z" style="fill:none;stroke:#263238;stroke-miterlimit:10"></path><path d="M380.13,392.13s-3.48-3.86-19.49-9.84-34.93-8.49-40.14-7.91-8.49-.58-14.28,1.16-8.3,2.12-9.07,3.08-2.9,2.9-3.09,3.48-9.07,2.51-9.26,18.72,9.26,27.59,27.21,36.08,26.82,12.93,46.31,12.35,28.76-10.61,34.74-18.72,4.44-21.8,0-28.17a26.42,26.42,0,0,0-11.77-8.88Z" style="fill:#8c8c8c"></path><path d="M395,415.68c-.56,7.43-5.57,13.18-9.84,16.15S369.8,437,367,437.21s-22.09-.74-30.62-2.22-17.44-6.19-24.69-9.1-16.52-9.84-22.09-18c-3.76-5.53-3.71-12.74-3.28-16.84a30.27,30.27,0,0,0-1.53,9.77c-.2,16.21,9.26,27.59,27.21,36.08s26.82,12.93,46.31,12.35,28.76-10.61,34.74-18.72c4.57-6.2,4.74-15.66,2.58-22.62C395.48,409.88,395.28,412.51,395,415.68Z" style="fill:#616161"></path><path d="M298.69,385.76s8.3,6,9.65,6.95,6.56,3.09,11,5.21,14.86,6,26.05,9.46,24.51,8.68,26.83,9.45,5.21,2.7,5.59,5.41-6.17,10.42-3.47,11,6.17-4.25,6.75-6.18-.58-3.86,1.16-4.44,5.6,1.35,5.6,0-5-4.24-5-4.24a99.71,99.71,0,0,0-11.77-6.56c-5.6-2.51-8.11-1.93-14.86-5.6S343.66,398.5,337.87,396a65.17,65.17,0,0,0-13.32-3.67c-.77-.19,2.89,3.09-3.09-1.73s-13.31-4.83-15.24-5.21S293.67,380.75,298.69,385.76Z" style="fill:#263238;stroke:#263238;stroke-miterlimit:10"></path><path d="M286.73,399.46s-1.93,8.11,9.26,16,16.21,11.39,23,13.32" style="fill:none;stroke:#263238;stroke-miterlimit:10"></path><path d="M322.62,430.15a101.73,101.73,0,0,0,23.93,6.37c12.54,1.54,28-.2,28-.2" style="fill:none;stroke:#263238;stroke-miterlimit:10"></path><path d="M381.29,433.62a24.07,24.07,0,0,0,6.36-3.66,20,20,0,0,0,6.57-10" style="fill:none;stroke:#263238;stroke-miterlimit:10"></path><path d="M380.13,392.13s-3.48-3.86-19.49-9.84-34.93-8.49-40.14-7.91-8.49-.58-14.28,1.16-8.3,2.12-9.07,3.08-2.9,2.9-3.09,3.48-9.07,2.51-9.26,18.72,9.26,27.59,27.21,36.08,26.82,12.93,46.31,12.35,28.76-10.61,34.74-18.72,4.44-21.8,0-28.17a26.42,26.42,0,0,0-11.77-8.88Z" style="fill:none;stroke:#263238;stroke-miterlimit:10"></path><ellipse cx="312.17" cy="416.87" rx="2.24" ry="1.5" style="fill:none;stroke:#263238;stroke-miterlimit:10"></ellipse><path d="M322.79,423.16c0,.49-.67.9-1.49.9s-1.5-.41-1.5-.9.67-.9,1.5-.9S322.79,422.66,322.79,423.16Z" style="fill:none;stroke:#263238;stroke-miterlimit:10"></path><ellipse cx="343.6" cy="420.17" rx="1.05" ry="0.6" style="fill:none;stroke:#263238;stroke-miterlimit:10"></ellipse><path d="M386.25,400.41c0,.5-.87.9-1.95.9s-1.94-.4-1.94-.9.87-.9,1.94-.9S386.25,399.91,386.25,400.41Z" style="fill:none;stroke:#263238;stroke-miterlimit:10"></path><path d="M197.14,363.25a10.06,10.06,0,0,0-1.49-1.5c-3.78-3.16-19.18-14.74-40.29-13.3-21.58,1.48-44.62,8.93-50.8,23.34s1.2,34.56,14.22,41.25c24.44,12.57,40,5.77,57.17-.75C206.05,400.85,207.15,375.86,197.14,363.25Z" style="fill:#8c8c8c"></path><path d="M103.67,380.69s3.71,8.91,5.75,11.32,10.77,7.8,12.81,8.91,13.32,5.2,15.66,5.39,19.42-3,19.42-3,11.14-1.29,13.74-2.41,10.39-4.27,10.39-4.27a51,51,0,0,0,7.59-4.82c2.62-2.23,8.49-8.1,8.49-8.1s-1.23,10.88-4.2,16.82-20.42,13-21.71,13.55-14.11,5.75-24.69,5.57S124.61,417,118.78,413s-12.7-12.67-14.18-16.94S103.67,380.69,103.67,380.69Z" style="fill:#616161"></path><path d="M112.84,383.34s8.91,0,11.65-1.83,7.08-13,16.22-15.53,17.82-2.06,26-4.11,13.94-5.26,13.71-2.52,2.29-1.14-.23,2.75-4.11,3.42-20.1,7.76-19.88,6.63-27.87,11.65-7.77,8-13.25,8.23-13.48-5.71-12.8-8.68S110.78,381.29,112.84,383.34Z" style="fill:#263238;stroke:#263238;stroke-miterlimit:10"></path><path d="M106.44,386.82s3.66,8.29,9.45,10.8,11.39,8.11,22,8.69,20.07-3.67,25.28-4.44,7-.39,9.46-1.74,4.44-2.89,5.79-3.67" style="fill:none;stroke:#263238;stroke-miterlimit:10"></path><path d="M182.66,393.76s3.86.2,6.37-1.93a30.17,30.17,0,0,0,4.44-4.82l4.05-3.28,3.09-3.67" style="fill:none;stroke:#263238;stroke-miterlimit:10"></path><path d="M197.14,363.25a10.06,10.06,0,0,0-1.49-1.5c-3.78-3.16-19.18-14.74-40.29-13.3-21.58,1.48-44.62,8.93-50.8,23.34s1.2,34.56,14.22,41.25c24.44,12.57,40,5.77,57.17-.75C206.05,400.85,207.15,375.86,197.14,363.25Z" style="fill:none;stroke:#263238;stroke-miterlimit:10"></path><ellipse cx="163.41" cy="396.79" rx="2.24" ry="1.5" style="fill:none;stroke:#263238;stroke-miterlimit:10"></ellipse><path d="M135.87,398.13c0,.42-.5.75-1.12.75s-1.12-.33-1.12-.75.5-.75,1.12-.75S135.87,397.72,135.87,398.13Z" style="fill:none;stroke:#263238;stroke-miterlimit:10"></path><path d="M182.12,380.32c0,.42-.51.75-1.13.75s-1.12-.33-1.12-.75.5-.74,1.12-.74S182.12,379.91,182.12,380.32Z" style="fill:none;stroke:#263238;stroke-miterlimit:10"></path><path d="M113.35,372.69c0,.41-.51.75-1.13.75s-1.12-.34-1.12-.75.5-.75,1.12-.75S113.35,372.28,113.35,372.69Z" style="fill:none;stroke:#263238;stroke-miterlimit:10"></path><path d="M218.9,378.16s-7.53.58-14.67,7.34a30.56,30.56,0,0,0-9.07,25.66c1.16,8.88,12.55,26.83,24.51,36.48s28.18,13.89,42.84,9.64,21.62-19.68,23.16-21.8,8.1-17,2.7-32.42-11.77-25.48-24.12-32.23-25.28-7.14-32.81-2.51-9.65,9.84-9.65,9.84Z" style="fill:#8c8c8c"></path><path d="M290.45,414.42l-1-7.48q-.28-1.23-.66-2.49c0,4.09-.2,11.08-1.81,16.94-2.44,8.89-5,11.35-18,20.07s-16.38,7.53-21.9,8.17-18.2-2.79-30.26-10.95A48.36,48.36,0,0,1,200.18,419L195,406.26a28.46,28.46,0,0,0,.2,4.9c1.16,8.88,12.55,26.83,24.51,36.48s28.18,13.89,42.84,9.64,21.62-19.68,23.16-21.8C286.82,433.89,290.79,425.18,290.45,414.42Z" style="fill:#616161"></path><path d="M225.65,380.67s2.32-.38,6.95,9.27,14.09,17,18,24.89,7.14,15.63,8.3,18.72,3.86,5.59,4.82,8.3,1.16,6.56,2.12,6.36-1.93-8.29-1.35-10.42,3.67-6.36,3.09-8.49-4.25-5.59-3.47-6.37,11-2.5,6.56-2.5-9.27,1.35-10-.58-.77-6-.77-6,1.54-.38-.39-1.93-3.85-6.36-3.85-6.36-5.6-8.88-9.65-13.32-6-6.37-8.3-7.53-2.12-.57-4.05-2.7-.78-3.47-2.9-2.89S223.15,376.81,225.65,380.67Z" style="fill:#263238;stroke:#263238;stroke-miterlimit:10"></path><path d="M211.18,434.51s8.3,5.79,15,10,21,5,26.44,4.44" style="fill:none;stroke:#263238;stroke-miterlimit:10"></path><path d="M257.5,448.21s4.63-1.35,6-2.5" style="fill:none;stroke:#263238;stroke-miterlimit:10"></path><path d="M267.53,442.81s7-4.24,10.42-7.72,6.18-4.24,9.07-13.7,1.16-14.47,1.16-14.47" style="fill:none;stroke:#263238;stroke-miterlimit:10"></path><path d="M218.9,378.16s-7.53.58-14.67,7.34a30.56,30.56,0,0,0-9.07,25.66c1.16,8.88,12.55,26.83,24.51,36.48s28.18,13.89,42.84,9.64,21.62-19.68,23.16-21.8,8.1-17,2.7-32.42-11.77-25.48-24.12-32.23-25.28-7.14-32.81-2.51-9.65,9.84-9.65,9.84Z" style="fill:none;stroke:#263238;stroke-miterlimit:10"></path><path d="M237.1,441.32c0,.5-.87.9-1.94.9s-1.95-.4-1.95-.9.87-.9,1.95-.9S237.1,440.83,237.1,441.32Z" style="fill:none;stroke:#263238;stroke-miterlimit:10"></path><path d="M241.29,370.68c0,.5-.87.9-1.94.9s-1.95-.4-1.95-.9.87-.9,1.95-.9S241.29,370.19,241.29,370.68Z" style="fill:none;stroke:#263238;stroke-miterlimit:10"></path><path d="M252.07,370.19c0,1.05-1.34,1.91-3,1.91s-3-.86-3-1.91,1.34-1.9,3-1.9S252.07,369.14,252.07,370.19Z" style="fill:none;stroke:#263238;stroke-miterlimit:10"></path><path d="M105.91,406.81S109.38,403,125.4,397s34.93-8.5,40.14-7.92,8.49-.58,14.28,1.16,8.3,2.12,9.07,3.09,2.89,2.89,3.09,3.47,9.07,2.51,9.26,18.72S192,443.09,174,451.58s-26.82,12.93-46.31,12.35S99,453.32,93,445.21,88.54,423.4,93,417a26.42,26.42,0,0,1,11.77-8.88Z" style="fill:#8c8c8c"></path><path d="M91,430.36c.55,7.42,5.56,13.18,9.83,16.15s15.41,5.19,18.19,5.38,22.09-.74,30.63-2.23,17.43-6.19,24.69-9.09,16.52-9.84,22.09-18c3.76-5.52,3.71-12.74,3.28-16.83a30.21,30.21,0,0,1,1.53,9.76c.19,16.21-9.26,27.6-27.21,36.09s-26.82,12.93-46.31,12.35S99,453.32,93,445.21c-4.58-6.2-4.74-15.67-2.58-22.63C90.55,424.56,90.76,427.18,91,430.36Z" style="fill:#616161"></path><path d="M187.35,400.44l-9.65,6.95c-1.35,1-6.56,3.08-11,5.21s-14.86,6-26.06,9.45-24.5,8.69-26.82,9.46-5.21,2.7-5.6,5.4,6.18,10.42,3.48,11-6.18-4.24-6.76-6.17.58-3.86-1.15-4.44-5.6,1.35-5.6,0,5-4.25,5-4.25A100.37,100.37,0,0,1,115,426.49c5.59-2.51,8.1-1.93,14.86-5.59s12.54-7.72,18.33-10.23A64.31,64.31,0,0,1,161.49,407c.77-.19-2.9,3.09,3.08-1.74s13.32-4.82,15.25-5.21S192.36,395.42,187.35,400.44Z" style="fill:#263238;stroke:#263238;stroke-miterlimit:10"></path><path d="M199.31,414.14s1.93,8.11-9.26,16-16.21,11.38-23,13.31" style="fill:none;stroke:#263238;stroke-miterlimit:10"></path><path d="M163.42,444.82a101.18,101.18,0,0,1-23.93,6.37c-12.55,1.55-28-.19-28-.19" style="fill:none;stroke:#263238;stroke-miterlimit:10"></path><path d="M104.75,448.3a24.07,24.07,0,0,1-6.37-3.67,19.85,19.85,0,0,1-6.56-10" style="fill:none;stroke:#263238;stroke-miterlimit:10"></path><path d="M105.91,406.81S109.38,403,125.4,397s34.93-8.5,40.14-7.92,8.49-.58,14.28,1.16,8.3,2.12,9.07,3.09,2.89,2.89,3.09,3.47,9.07,2.51,9.26,18.72S192,443.09,174,451.58s-26.82,12.93-46.31,12.35S99,453.32,93,445.21,88.54,423.4,93,417a26.42,26.42,0,0,1,11.77-8.88Z" style="fill:none;stroke:#263238;stroke-miterlimit:10"></path><ellipse cx="173.87" cy="431.55" rx="2.24" ry="1.5" style="fill:none;stroke:#263238;stroke-miterlimit:10"></ellipse><path d="M163.24,437.83c0,.5.67.9,1.5.9s1.5-.4,1.5-.9-.67-.89-1.5-.89S163.24,437.34,163.24,437.83Z" style="fill:none;stroke:#263238;stroke-miterlimit:10"></path><path d="M141.39,434.84c0,.33.47.6,1.05.6s1.05-.27,1.05-.6-.47-.6-1.05-.6S141.39,434.51,141.39,434.84Z" style="fill:none;stroke:#263238;stroke-miterlimit:10"></path><path d="M99.79,415.09c0,.49.87.89,1.94.89s2-.4,2-.89-.87-.9-2-.9S99.79,414.59,99.79,415.09Z" style="fill:none;stroke:#263238;stroke-miterlimit:10"></path></g></svg>
