<svg width="24" height="24" viewBox="0 0 24 24" fill="none" xmlns="http://www.w3.org/2000/svg">
<path d="M14.8565 17.082C16.7197 16.8614 18.5504 16.4217 20.3105 15.772C18.8199 14.1208 17.9962 11.9745 17.9995 9.75V9.05V9C17.9995 7.4087 17.3674 5.88258 16.2421 4.75736C15.1169 3.63214 13.5908 3 11.9995 3C10.4082 3 8.88208 3.63214 7.75686 4.75736C6.63164 5.88258 5.9995 7.4087 5.9995 9V9.75C6.00252 11.9746 5.17849 14.121 3.6875 15.772C5.4205 16.412 7.2475 16.857 9.1425 17.082M14.8565 17.082C12.9585 17.3071 11.0405 17.3071 9.1425 17.082M14.8565 17.082C15.0006 17.5319 15.0364 18.0094 14.9611 18.4757C14.8857 18.942 14.7013 19.384 14.4229 19.7656C14.1444 20.1472 13.7798 20.4576 13.3587 20.6716C12.9376 20.8856 12.4719 20.9972 11.9995 20.9972C11.5271 20.9972 11.0614 20.8856 10.6403 20.6716C10.2192 20.4576 9.85457 20.1472 9.57612 19.7656C9.29767 19.384 9.11326 18.942 9.03791 18.4757C8.96256 18.0094 8.9984 17.5319 9.1425 17.082" stroke="#737373" stroke-width="1.5" stroke-linecap="round" stroke-linejoin="round"/>
</svg>
