<svg width="24" height="24" viewBox="0 0 24 24" fill="none" xmlns="http://www.w3.org/2000/svg">
<path d="M10.344 3.94C10.434 3.398 10.904 3 11.454 3H12.547C13.097 3 13.567 3.398 13.657 3.94L13.806 4.834C13.876 5.258 14.19 5.598 14.586 5.764C14.984 5.928 15.441 5.906 15.791 5.656L16.528 5.129C16.7448 4.97405 17.0095 4.90107 17.275 4.92305C17.5405 4.94502 17.7897 5.06053 17.978 5.249L18.751 6.023C19.141 6.412 19.191 7.025 18.871 7.473L18.344 8.21C18.094 8.56 18.072 9.016 18.237 9.414C18.402 9.811 18.742 10.124 19.167 10.194L20.06 10.344C20.603 10.434 21 10.904 21 11.453V12.547C21 13.097 20.603 13.567 20.06 13.657L19.167 13.806C18.742 13.876 18.402 14.189 18.237 14.586C18.072 14.984 18.094 15.44 18.344 15.79L18.871 16.528C19.191 16.975 19.14 17.588 18.751 17.978L17.977 18.751C17.7887 18.9392 17.5398 19.0546 17.2745 19.0765C17.0092 19.0985 16.7447 19.0257 16.528 18.871L15.79 18.344C15.44 18.094 14.984 18.072 14.587 18.237C14.19 18.402 13.877 18.742 13.806 19.166L13.657 20.06C13.567 20.602 13.097 21 12.547 21H11.453C10.903 21 10.434 20.602 10.343 20.06L10.195 19.166C10.124 18.742 9.811 18.402 9.414 18.236C9.016 18.072 8.56 18.094 8.21 18.344L7.472 18.871C7.025 19.191 6.412 19.14 6.022 18.751L5.249 17.977C5.06053 17.7887 4.94502 17.5395 4.92305 17.274C4.90107 17.0085 4.97405 16.7438 5.129 16.527L5.656 15.79C5.906 15.44 5.929 14.984 5.764 14.586C5.599 14.189 5.259 13.876 4.834 13.806L3.94 13.656C3.398 13.566 3 13.096 3 12.547V11.453C3 10.903 3.398 10.433 3.94 10.343L4.834 10.194C5.258 10.124 5.599 9.811 5.764 9.414C5.929 9.016 5.907 8.56 5.657 8.21L5.13 7.472C4.97505 7.25524 4.90207 6.99053 4.92405 6.72499C4.94602 6.45945 5.06153 6.21034 5.25 6.022L6.023 5.249C6.21134 5.06053 6.46045 4.94502 6.72599 4.92305C6.99153 4.90107 7.25624 4.97405 7.473 5.129L8.21 5.656C8.56 5.906 9.017 5.928 9.414 5.763C9.811 5.598 10.124 5.258 10.194 4.834L10.344 3.94Z" stroke="#737373" stroke-width="1.5" stroke-linecap="round" stroke-linejoin="round"/>
<path d="M15 12C15 12.7956 14.6839 13.5587 14.1213 14.1213C13.5587 14.6839 12.7956 15 12 15C11.2044 15 10.4413 14.6839 9.87868 14.1213C9.31607 13.5587 9 12.7956 9 12C9 11.2044 9.31607 10.4413 9.87868 9.87868C10.4413 9.31607 11.2044 9 12 9C12.7956 9 13.5587 9.31607 14.1213 9.87868C14.6839 10.4413 15 11.2044 15 12Z" stroke="#737373" stroke-width="1.5" stroke-linecap="round" stroke-linejoin="round"/>
</svg>
