<svg width="18" height="22" viewBox="0 0 18 22" fill="none" xmlns="http://www.w3.org/2000/svg">
<path d="M12.749 5C12.749 5.99456 12.3539 6.94839 11.6507 7.65165C10.9474 8.35491 9.99356 8.75 8.999 8.75C8.00444 8.75 7.05061 8.35491 6.34735 7.65165C5.64409 6.94839 5.249 5.99456 5.249 5C5.249 4.00544 5.64409 3.05161 6.34735 2.34835C7.05061 1.64509 8.00444 1.25 8.999 1.25C9.99356 1.25 10.9474 1.64509 11.6507 2.34835C12.3539 3.05161 12.749 4.00544 12.749 5ZM1.5 19.118C1.53213 17.1504 2.33634 15.2742 3.73918 13.894C5.14202 12.5139 7.03109 11.7405 8.999 11.7405C10.9669 11.7405 12.856 12.5139 14.2588 13.894C15.6617 15.2742 16.4659 17.1504 16.498 19.118C14.1454 20.1968 11.5871 20.7535 8.999 20.75C6.323 20.75 3.783 20.166 1.5 19.118Z" stroke="#737373" stroke-width="1.5" stroke-linecap="round" stroke-linejoin="round"/>
</svg>
