<svg width="24" height="24" viewBox="0 0 24 24" fill="none" xmlns="http://www.w3.org/2000/svg">
<path d="M15.7512 10.5V6C15.7512 5.00544 15.3561 4.05161 14.6529 3.34835C13.9496 2.64509 12.9958 2.25 12.0012 2.25C11.0066 2.25 10.0528 2.64509 9.34956 3.34835C8.64629 4.05161 8.25121 5.00544 8.25121 6V10.5M19.6072 8.507L20.8702 20.507C20.9402 21.172 20.4202 21.75 19.7512 21.75H4.25121C4.09341 21.7502 3.93735 21.7171 3.79315 21.6531C3.64896 21.589 3.51985 21.4953 3.41423 21.3781C3.3086 21.2608 3.22882 21.1227 3.18006 20.9726C3.1313 20.8226 3.11466 20.6639 3.13121 20.507L4.39521 8.507C4.42436 8.23056 4.55483 7.9747 4.76146 7.78876C4.96808 7.60281 5.23623 7.49995 5.51421 7.5H18.4882C19.0642 7.5 19.5472 7.935 19.6072 8.507ZM8.62621 10.5C8.62621 10.5995 8.5867 10.6948 8.51637 10.7652C8.44604 10.8355 8.35066 10.875 8.25121 10.875C8.15175 10.875 8.05637 10.8355 7.98604 10.7652C7.91571 10.6948 7.87621 10.5995 7.87621 10.5C7.87621 10.4005 7.91571 10.3052 7.98604 10.2348C8.05637 10.1645 8.15175 10.125 8.25121 10.125C8.35066 10.125 8.44604 10.1645 8.51637 10.2348C8.5867 10.3052 8.62621 10.4005 8.62621 10.5ZM16.1262 10.5C16.1262 10.5995 16.0867 10.6948 16.0164 10.7652C15.946 10.8355 15.8507 10.875 15.7512 10.875C15.6517 10.875 15.5564 10.8355 15.486 10.7652C15.4157 10.6948 15.3762 10.5995 15.3762 10.5C15.3762 10.4005 15.4157 10.3052 15.486 10.2348C15.5564 10.1645 15.6517 10.125 15.7512 10.125C15.8507 10.125 15.946 10.1645 16.0164 10.2348C16.0867 10.3052 16.1262 10.4005 16.1262 10.5Z" stroke="#737373" stroke-width="1.5" stroke-linecap="round" stroke-linejoin="round"/>
</svg>
